<svg width="324" height="47" viewBox="0 0 324 47" fill="none" xmlns="http://www.w3.org/2000/svg">
<path d="M27.433 0.216841C26.0675 0.200006 24.737 0.649296 23.6613 1.49054C22.5856 2.33179 21.8288 3.51471 21.5161 4.84402C21.5161 4.91737 21.5161 4.99072 21.4672 5.05795L19.7557 13.0042L16.4182 28.5484L14.7189 36.4763L14.6517 36.8002C14.3879 37.8853 13.8245 38.8744 13.0258 39.6548C11.8827 40.7712 10.3448 41.3907 8.74701 41.3785H0C1.59664 41.3848 3.13238 40.7661 4.27876 39.6548C5.05636 38.8912 5.61018 37.9294 5.88024 36.8736C5.91691 36.7269 5.94748 36.5802 5.97804 36.4274L7.65898 28.585L12.7263 5.05795C12.7263 4.99072 12.7568 4.91737 12.769 4.84402C13.0831 3.51421 13.841 2.33116 14.9177 1.48997C15.9945 0.648791 17.3258 0.199725 18.6921 0.216841H27.433Z" fill="url(#paint0_linear_28_3087)"/>
<path d="M62.4576 0.216826C61.0921 0.19999 59.7617 0.649281 58.686 1.49053C57.6102 2.33178 56.8535 3.51469 56.5407 4.844C56.5407 4.91735 56.5102 4.9907 56.4979 5.05794L54.7864 13.0042L51.4429 28.5483L49.7436 36.4763L49.6703 36.8002C49.4063 37.8839 48.8453 38.8724 48.0504 39.6548C46.9066 40.77 45.3692 41.3894 43.7717 41.3785H35.0186C36.3629 41.3942 37.6738 40.959 38.7419 40.1425C39.8099 39.3259 40.5736 38.175 40.911 36.8736C40.9477 36.7269 40.9844 36.5802 41.0088 36.4274L42.6959 28.585L47.7448 5.05794C47.7448 4.9907 47.7448 4.91735 47.7876 4.844C48.1026 3.51474 48.8608 2.33232 49.9374 1.49131C51.0139 0.650309 52.3446 0.200825 53.7106 0.216826H62.4576Z" fill="url(#paint1_linear_28_3087)"/>
<path d="M25.9049 25.2231L25.1837 28.5728L23.5333 36.4152C23.5333 36.568 23.4783 36.7147 23.4416 36.8614C23.1616 37.9277 22.5901 38.895 21.7912 39.6548C20.6481 40.7712 19.1102 41.3907 17.5125 41.3785H26.2534C27.6117 41.3951 28.9357 40.9509 30.0091 40.1183C31.0826 39.2857 31.8422 38.1139 32.1642 36.7941L32.2314 36.4702L33.9246 28.5728L34.6397 25.2231H25.9049Z" fill="url(#paint2_linear_28_3087)"/>
<path d="M36.1982 0.216854C34.8288 0.195532 33.4932 0.642668 32.4127 1.48419C31.3322 2.32571 30.5716 3.51112 30.2568 4.84403C30.2568 4.91738 30.2568 4.99073 30.2079 5.05797L27.7629 16.3722H36.5527L37.2679 13.0287L38.9794 5.08242C38.9794 5.01518 38.9794 4.94183 39.0283 4.86848C39.2784 3.7564 39.8403 2.73864 40.6481 1.93447C41.7955 0.825352 43.3311 0.208912 44.9269 0.216854H36.1982Z" fill="url(#paint3_linear_28_3087)"/>
<path d="M68.3013 22.1852L66.8282 29.0985H72.4333L73.9126 22.1852H79.0593L75.0617 40.9262H69.915L71.4737 33.5912H65.8746L64.3159 40.9262H59.1692L62.0849 27.2158C62.3875 25.7918 63.1702 24.5151 64.3019 23.5993C65.4335 22.6835 66.8455 22.1843 68.3013 22.1852Z" fill="url(#paint4_linear_28_3087)"/>
<path d="M80.893 27.0386H85.9114L82.9529 40.9262H77.9346L80.893 27.0386ZM82.03 21.6534H87.0483L86.1498 25.8772H81.1314L82.03 21.6534Z" fill="url(#paint5_linear_28_3087)"/>
<path d="M90.1108 46.8125C88.8988 46.85 87.6938 46.6161 86.5838 46.1279C85.6345 45.6774 84.8129 44.9966 84.1938 44.1475L87.4152 41.403C87.8108 41.9062 88.3061 42.3224 88.8699 42.6255C89.4863 42.9549 90.176 43.1231 90.8748 43.1145C91.2992 43.114 91.7212 43.0522 92.1279 42.9311C92.5427 42.8024 92.9287 42.5949 93.2648 42.3198C93.6298 42.0205 93.9383 41.6582 94.1756 41.2502C94.4576 40.7592 94.654 40.2239 94.7563 39.667L94.9397 38.7685C94.4564 39.4844 93.7833 40.0516 92.9959 40.4066C92.2275 40.7535 91.394 40.9327 90.5509 40.9323C89.898 40.9443 89.2514 40.8041 88.6621 40.5228C88.1184 40.2555 87.6404 39.8715 87.2623 39.3981C86.8686 38.8931 86.5778 38.3158 86.4066 37.6988C86.2054 36.9995 86.1066 36.2748 86.1132 35.5472C86.0975 34.3797 86.305 33.2199 86.7244 32.1303C87.1222 31.1042 87.7043 30.1596 88.4421 29.343C89.1489 28.5584 90.005 27.9225 90.9604 27.4725C91.9039 27.0168 92.9383 26.7806 93.9861 26.7818C94.8067 26.76 95.6165 26.972 96.3211 27.3931C96.9486 27.7962 97.4123 28.4093 97.6292 29.1229L98.0754 27.063H102.434L99.7685 39.6548C99.5484 40.7064 99.1338 41.7077 98.546 42.6071C97.981 43.4794 97.2599 44.2399 96.4189 44.8504C95.544 45.4846 94.5716 45.9718 93.5399 46.293C92.4304 46.6418 91.2738 46.817 90.1108 46.8125ZM93.2159 36.9653C93.6493 36.9687 94.0741 36.8455 94.4384 36.6108C94.8946 36.314 95.3062 35.9538 95.6609 35.5411L96.1927 33.0594C96.136 32.5013 95.9051 31.9752 95.5326 31.5557C95.3799 31.3816 95.192 31.2419 94.9812 31.146C94.7704 31.0501 94.5416 31.0001 94.3101 30.9995C93.9306 31.0017 93.5595 31.112 93.2404 31.3173C92.8836 31.5442 92.5675 31.8293 92.3052 32.1608C92.0157 32.5288 91.7885 32.9418 91.6328 33.3834C91.4665 33.8249 91.3816 34.2929 91.3822 34.7648C91.3552 35.3354 91.533 35.8968 91.8834 36.3479C92.044 36.5453 92.2475 36.7035 92.4784 36.8104C92.7093 36.9174 92.9615 36.9704 93.2159 36.9653Z" fill="url(#paint6_linear_28_3087)"/>
<path d="M106.107 21.6534H111.119L109.536 29.0985C110.12 28.3682 110.859 27.7773 111.7 27.3686C112.523 26.9699 113.426 26.761 114.341 26.7574C114.893 26.7423 115.444 26.8272 115.967 27.008C116.34 27.1393 116.675 27.361 116.941 27.6532C117.208 27.9455 117.398 28.2992 117.495 28.6828C117.592 29.0539 117.642 29.4361 117.641 29.8198C117.641 30.155 117.618 30.4899 117.574 30.8222C117.535 31.143 117.478 31.4614 117.403 31.7758L115.478 40.9079H110.459L112.122 33.0961C112.172 32.861 112.199 32.6214 112.201 32.3809C112.218 32.2109 112.2 32.0393 112.149 31.8764C112.097 31.7135 112.013 31.5628 111.902 31.4335C111.797 31.3354 111.674 31.259 111.54 31.2087C111.406 31.1583 111.263 31.135 111.119 31.1401C110.939 31.1505 110.764 31.2006 110.606 31.2868C110.378 31.399 110.161 31.532 109.958 31.6841C109.714 31.8643 109.488 32.0691 109.286 32.2953C109.055 32.5472 108.85 32.8216 108.674 33.1144L107.03 40.9262H102.012L106.107 21.6534Z" fill="url(#paint7_linear_28_3087)"/>
<path d="M127.507 40.8773C126.844 40.875 126.182 40.8219 125.527 40.7184C124.867 40.6124 124.216 40.4613 123.577 40.266C122.951 40.0798 122.338 39.8511 121.743 39.5814C121.187 39.334 120.657 39.0331 120.16 38.6829L123.326 34.1963L123.986 34.6731C124.361 34.9399 124.758 35.175 125.172 35.376C125.678 35.623 126.203 35.8274 126.743 35.9873C127.337 36.1683 127.956 36.259 128.577 36.2562C129.188 36.2562 129.555 36.1523 129.714 35.9506C129.868 35.7606 129.952 35.5231 129.952 35.2782C129.955 35.1605 129.929 35.0438 129.878 34.9376C129.827 34.8315 129.752 34.7388 129.659 34.667C129.429 34.4745 129.171 34.3179 128.895 34.2024C128.577 34.0618 128.21 33.9274 127.801 33.7929C127.391 33.6584 126.957 33.5056 126.517 33.3283C125.53 33.0043 124.635 32.4489 123.907 31.7085C123.318 31.0212 123.01 30.1372 123.045 29.2329C123.027 28.1275 123.279 27.0344 123.779 26.0483C124.224 25.1531 124.848 24.3585 125.612 23.7133C126.392 23.0757 127.28 22.5849 128.235 22.2647C129.19 21.9333 130.194 21.7639 131.205 21.7634C131.84 21.7594 132.473 21.825 133.094 21.959C133.677 22.086 134.251 22.2535 134.812 22.4603C135.33 22.6603 135.836 22.891 136.328 23.151C136.786 23.3894 137.189 23.6155 137.55 23.8234L134.439 28.1021L134.029 27.8026C133.714 27.5754 133.383 27.3711 133.039 27.1914C132.598 26.9619 132.138 26.7716 131.664 26.6229C131.161 26.4546 130.635 26.37 130.105 26.3723C129.758 26.3606 129.416 26.4521 129.121 26.6351C128.984 26.7268 128.874 26.8532 128.802 27.0014C128.73 27.1497 128.699 27.3144 128.711 27.4787C128.711 27.8821 128.962 28.1938 129.475 28.4016C129.989 28.6095 130.661 28.8723 131.505 29.1718C132.089 29.3776 132.662 29.6122 133.222 29.8748C133.713 30.1154 134.166 30.4263 134.567 30.7977C134.941 31.1393 135.239 31.5559 135.441 32.0202C135.656 32.5562 135.76 33.1301 135.747 33.7073C135.787 34.8756 135.528 36.0348 134.995 37.0753C134.52 37.9464 133.855 38.7003 133.051 39.2819C132.252 39.8534 131.352 40.2682 130.398 40.5044C129.454 40.747 128.483 40.8722 127.507 40.8773Z" fill="url(#paint8_linear_28_3087)"/>
<path d="M139.151 26.7757H143.504L143.057 28.8601C143.626 28.1485 144.331 27.5565 145.129 27.118C145.95 26.6994 146.861 26.4894 147.782 26.5068C148.47 26.4959 149.151 26.6401 149.775 26.9285C150.354 27.2032 150.867 27.5993 151.279 28.0899C151.711 28.6163 152.035 29.2228 152.232 29.8748C152.458 30.6028 152.57 31.3618 152.562 32.1242C152.567 33.2808 152.36 34.4285 151.951 35.5105C151.575 36.5319 151.022 37.4794 150.319 38.31C149.657 39.0898 148.854 39.7387 147.953 40.2232C147.101 40.6884 146.144 40.9303 145.172 40.9262C144.351 40.9539 143.54 40.7415 142.837 40.3149C142.219 39.9202 141.781 39.2993 141.615 38.5851L139.977 46.2685H134.964L139.151 26.7757ZM144.353 36.7024C144.736 36.6989 145.111 36.5888 145.435 36.3846C145.801 36.1654 146.126 35.8841 146.395 35.5533C146.689 35.1883 146.916 34.7745 147.067 34.3308C147.236 33.873 147.321 33.3884 147.318 32.9005C147.347 32.3278 147.174 31.7631 146.829 31.3051C146.657 31.1001 146.441 30.938 146.195 30.8318C145.95 30.7257 145.683 30.6784 145.417 30.6938C145 30.6967 144.592 30.8198 144.243 31.0484C143.787 31.3452 143.375 31.7053 143.021 32.118L142.489 34.5203C142.557 35.0823 142.781 35.6139 143.137 36.0545C143.275 36.2495 143.457 36.4096 143.668 36.5221C143.88 36.6346 144.114 36.6963 144.353 36.7024Z" fill="url(#paint9_linear_28_3087)"/>
<path d="M159.317 40.9262C158.483 40.9353 157.654 40.7924 156.872 40.5044C156.156 40.2471 155.502 39.8432 154.952 39.3186C154.42 38.8007 154.003 38.1757 153.73 37.4848C153.436 36.7037 153.293 35.8741 153.308 35.0398C153.314 33.8873 153.572 32.7501 154.066 31.7085C154.53 30.6823 155.193 29.758 156.016 28.9884C156.864 28.1969 157.856 27.5745 158.938 27.1547C160.077 26.7096 161.29 26.4856 162.513 26.4945C163.909 26.4104 165.294 26.7861 166.456 27.5642C166.916 27.9063 167.285 28.356 167.532 28.8739C167.778 29.3917 167.893 29.9621 167.868 30.5349C167.889 31.2687 167.696 31.9927 167.315 32.6197C166.933 33.2466 166.378 33.7496 165.716 34.0679C164.286 34.8626 162.161 35.2701 159.341 35.2904H158.577C158.524 35.8503 158.659 36.4119 158.962 36.8858C159.132 37.055 159.338 37.1844 159.564 37.2647C159.79 37.345 160.031 37.3743 160.27 37.3504C160.79 37.3678 161.305 37.2441 161.76 36.9922C162.216 36.7404 162.594 36.3698 162.856 35.92L166.786 37.2098C166.39 37.7832 165.914 38.2977 165.374 38.7379C164.811 39.2132 164.196 39.6233 163.54 39.9604C162.88 40.2915 162.185 40.5477 161.468 40.7245C160.762 40.8776 160.039 40.9453 159.317 40.9262ZM161.615 30.0765C161.082 30.087 160.575 30.3065 160.203 30.6877C159.735 31.1361 159.37 31.6803 159.133 32.2831H159.317C160.269 32.3267 161.223 32.2425 162.153 32.0325C162.691 31.8674 162.96 31.5618 162.96 31.1217C162.962 30.9782 162.929 30.8362 162.865 30.7076C162.802 30.579 162.708 30.4674 162.593 30.3821C162.31 30.1742 161.966 30.0666 161.615 30.0765Z" fill="url(#paint10_linear_28_3087)"/>
<path d="M174.256 40.9262C173.422 40.9356 172.593 40.7926 171.811 40.5044C171.106 40.2441 170.462 39.8403 169.922 39.3186C169.389 38.8009 168.972 38.1759 168.699 37.4848C168.401 36.7049 168.256 35.8747 168.271 35.0398C168.271 33.8887 168.524 32.7515 169.011 31.7085C169.477 30.6818 170.142 29.7574 170.967 28.9884C171.812 28.1956 172.802 27.573 173.883 27.1547C175.022 26.7106 176.236 26.4866 177.459 26.4945C178.856 26.4104 180.243 26.7861 181.407 27.5642C181.867 27.9063 182.237 28.356 182.483 28.8739C182.729 29.3917 182.844 29.9621 182.819 30.5349C182.838 31.2684 182.646 31.9918 182.264 32.6184C181.882 33.2451 181.328 33.7484 180.668 34.0679C179.229 34.8626 177.104 35.2701 174.292 35.2904H173.528C173.473 35.8496 173.607 36.411 173.907 36.8858C174.077 37.055 174.283 37.1844 174.509 37.2647C174.735 37.345 174.976 37.3743 175.215 37.3504C175.735 37.3678 176.25 37.2441 176.706 36.9922C177.161 36.7404 177.539 36.3698 177.801 35.92L181.731 37.2098C181.331 37.7804 180.856 38.2944 180.319 38.7379C179.186 39.6764 177.855 40.3452 176.426 40.6939C175.714 40.8579 174.986 40.9359 174.256 40.9262ZM176.554 30.0765C176.022 30.0896 175.516 30.3087 175.142 30.6877C174.676 31.1376 174.312 31.6815 174.072 32.2831H174.256C175.21 32.3263 176.166 32.242 177.098 32.0325C177.63 31.8674 177.899 31.5618 177.899 31.1217C177.901 30.9782 177.868 30.8362 177.805 30.7076C177.741 30.579 177.647 30.4674 177.532 30.3821C177.249 30.1733 176.905 30.0657 176.554 30.0765Z" fill="url(#paint11_linear_28_3087)"/>
<path d="M188.143 40.9262C187.431 40.9402 186.724 40.8005 186.071 40.5167C185.477 40.2531 184.948 39.8605 184.525 39.3675C184.089 38.8493 183.763 38.2485 183.565 37.601C183.338 36.8647 183.226 36.0976 183.235 35.3272C183.224 33.0605 184.019 30.8638 185.478 29.1291C186.139 28.3364 186.952 27.6839 187.868 27.2097C188.752 26.7504 189.733 26.5113 190.729 26.5129C191.499 26.4936 192.257 26.7066 192.905 27.1242C193.51 27.5267 193.945 28.1383 194.127 28.8418L195.71 21.3967H200.753L197.825 35.1254C197.78 35.3262 197.753 35.5309 197.746 35.7367C197.746 36.1707 197.984 36.403 198.461 36.4213L197.563 40.645C196.859 40.8005 196.143 40.8885 195.423 40.9079C194.775 40.9346 194.132 40.789 193.559 40.4861C193.321 40.3323 193.13 40.1169 193.005 39.8628C192.88 39.6088 192.826 39.3257 192.85 39.0436C192.844 38.9561 192.844 38.8682 192.85 38.7807C192.856 38.6923 192.868 38.6045 192.886 38.5179C192.318 39.3035 191.561 39.9339 190.686 40.3516C189.89 40.7256 189.022 40.9217 188.143 40.9262ZM190.405 36.7025C190.828 36.7038 191.243 36.5805 191.597 36.3479C192.046 36.0427 192.457 35.6835 192.819 35.2783L193.351 32.7966C193.289 32.2458 193.064 31.7262 192.703 31.3051C192.553 31.1272 192.366 30.9841 192.155 30.886C191.943 30.7878 191.713 30.7368 191.481 30.7367C191.097 30.7402 190.723 30.8503 190.399 31.0545C190.036 31.2732 189.715 31.5547 189.451 31.8858C188.85 32.6272 188.521 33.5532 188.522 34.5081C188.492 35.0828 188.665 35.6499 189.011 36.1096C189.183 36.3076 189.398 36.4639 189.64 36.5666C189.881 36.6694 190.143 36.7158 190.405 36.7025Z" fill="url(#paint12_linear_28_3087)"/>
<path d="M208.895 41.0607C208.229 41.0507 207.565 40.9894 206.909 40.8773C206.249 40.7713 205.598 40.6202 204.959 40.425C204.333 40.2387 203.72 40.01 203.125 39.7404C202.57 39.4929 202.039 39.192 201.542 38.8418L204.708 34.3552L205.368 34.832C205.74 35.0919 206.133 35.3209 206.542 35.5166C207.048 35.7636 207.573 35.968 208.113 36.1279C208.707 36.3089 209.325 36.3996 209.947 36.3968C210.558 36.3968 210.925 36.2929 211.084 36.0912C211.238 35.9012 211.322 35.6637 211.322 35.4188C211.323 35.3013 211.297 35.1851 211.246 35.0792C211.195 34.9732 211.121 34.8803 211.029 34.8076C210.797 34.6194 210.54 34.465 210.265 34.3491C209.947 34.2085 209.58 34.0741 209.17 33.9396C208.761 33.8051 208.327 33.6523 207.887 33.475C206.9 33.1369 206.009 32.5667 205.289 31.8124C204.72 31.1258 204.426 30.2524 204.464 29.3613C204.435 28.2702 204.67 27.1883 205.148 26.2073C205.607 25.3081 206.245 24.5132 207.025 23.8723C207.804 23.2347 208.693 22.7438 209.647 22.4236C210.603 22.0922 211.607 21.9228 212.618 21.9224C213.253 21.9184 213.886 21.984 214.507 22.118C215.09 22.2449 215.664 22.4124 216.224 22.6192C216.734 22.8102 217.232 23.0306 217.716 23.2794C218.174 23.5177 218.578 23.7439 218.938 23.9517L215.827 28.1999L215.417 27.9004C215.104 27.671 214.773 27.4666 214.427 27.2892C213.986 27.0597 213.526 26.8695 213.052 26.7207C212.549 26.5524 212.023 26.4678 211.493 26.4701C211.146 26.4584 210.804 26.5499 210.509 26.7329C210.372 26.8246 210.262 26.951 210.19 27.0992C210.118 27.2475 210.087 27.4122 210.1 27.5765C210.1 27.9799 210.35 28.2916 210.864 28.4995C211.377 28.7073 212.049 28.9701 212.893 29.2635C213.504 29.5141 214.115 29.7709 214.623 30.0337C215.114 30.2743 215.567 30.5852 215.968 30.9567C216.343 31.2972 216.641 31.714 216.842 32.1792C217.056 32.7152 217.16 33.289 217.147 33.8662C217.187 35.0346 216.928 36.1937 216.395 37.2342C215.921 38.1047 215.257 38.8569 214.452 39.4347C213.654 40.0084 212.753 40.4234 211.799 40.6572C210.851 40.9111 209.876 41.0466 208.895 41.0607Z" fill="url(#paint13_linear_28_3087)"/>
<path d="M224.287 41.0851C223.388 41.1049 222.495 40.947 221.658 40.6206C220.965 40.3511 220.34 39.934 219.824 39.3981C219.329 38.8749 218.955 38.2487 218.73 37.5643C218.489 36.8496 218.367 36.0999 218.37 35.3455C218.369 34.2606 218.576 33.1857 218.981 32.1792C219.388 31.1477 219.993 30.2051 220.76 29.4041C221.558 28.5681 222.514 27.8972 223.571 27.4298C224.764 26.9187 226.052 26.6666 227.349 26.6902C228.246 26.6715 229.139 26.8272 229.977 27.1486C230.671 27.4329 231.297 27.8622 231.811 28.4078C232.304 28.9329 232.677 29.5585 232.905 30.2415C233.149 30.96 233.27 31.714 233.266 32.4726C233.267 33.5575 233.059 34.6324 232.655 35.6389C232.246 36.6723 231.635 37.6137 230.858 38.4079C230.049 39.2385 229.085 39.903 228.021 40.3639C226.841 40.865 225.568 41.1108 224.287 41.0851ZM225.185 36.8614C225.573 36.8604 225.954 36.7593 226.291 36.568C226.651 36.3731 226.966 36.1044 227.214 35.7795C227.489 35.4115 227.696 34.9975 227.826 34.557C227.976 34.0659 228.05 33.5547 228.046 33.0411C228.076 32.482 227.929 31.9278 227.624 31.4579C227.491 31.2698 227.312 31.1182 227.105 31.0167C226.898 30.9153 226.669 30.8673 226.438 30.8772C226.051 30.8783 225.671 30.9771 225.332 31.1645C224.972 31.3651 224.657 31.6352 224.403 31.9592C224.128 32.3274 223.922 32.7413 223.791 33.1817C223.639 33.6746 223.563 34.1878 223.565 34.7037C223.535 35.2627 223.683 35.817 223.987 36.2868C224.124 36.4743 224.304 36.625 224.514 36.7253C224.723 36.8256 224.953 36.8724 225.185 36.8614Z" fill="url(#paint14_linear_28_3087)"/>
<path d="M237.38 41.0851C236.484 41.1497 235.595 40.8917 234.873 40.3577C234.584 40.0944 234.357 39.7692 234.21 39.4063C234.063 39.0433 233.999 38.652 234.024 38.2611C234.024 38.0655 234.024 37.8699 234.054 37.6805C234.073 37.4743 234.107 37.2699 234.158 37.0692L237.471 21.5495H242.484L239.556 35.3027C239.505 35.4921 239.478 35.6872 239.476 35.8834C239.476 36.5558 239.794 36.8858 240.43 36.8858C240.653 36.8796 240.875 36.8447 241.09 36.7819C241.336 36.7111 241.574 36.6127 241.799 36.4885L241.64 40.1866C240.96 40.4931 240.249 40.7247 239.519 40.8773C238.815 41.0182 238.098 41.0879 237.38 41.0851Z" fill="url(#paint15_linear_28_3087)"/>
<path d="M246.487 41.0851C246.044 41.1209 245.599 41.0656 245.179 40.9226C244.758 40.7796 244.371 40.552 244.042 40.2538C243.747 39.9229 243.521 39.5359 243.378 39.1158C243.235 38.6958 243.178 38.2513 243.211 37.8088C243.221 37.2226 243.291 36.6389 243.419 36.0668L245.417 26.9347H250.405L248.718 34.9359C248.668 35.169 248.641 35.4066 248.639 35.645C248.639 36.458 248.969 36.8675 249.641 36.8675C249.998 36.8543 250.349 36.7647 250.668 36.6047C251.192 36.3144 251.649 35.919 252.013 35.4433L253.847 26.9408H258.865L257.098 35.2844C257.053 35.4851 257.026 35.6898 257.019 35.8956C257.019 36.3357 257.251 36.568 257.728 36.5863L256.829 40.8101C256.118 40.9637 255.393 41.0517 254.666 41.0729C254.027 41.0942 253.394 40.9444 252.832 40.6389C252.586 40.48 252.389 40.2571 252.261 39.9943C252.133 39.7315 252.079 39.4387 252.105 39.1475C252.105 39.0558 252.105 38.9763 252.105 38.8969C252.105 38.8174 252.105 38.7318 252.147 38.6462C251.434 39.4387 250.556 40.0647 249.574 40.48C248.596 40.8854 247.546 41.0911 246.487 41.0851Z" fill="url(#paint16_linear_28_3087)"/>
<path d="M263.669 41.1096C263.225 41.1126 262.782 41.0633 262.349 40.9629C261.963 40.8767 261.599 40.7124 261.279 40.48C260.975 40.2517 260.731 39.9514 260.57 39.6059C260.389 39.1903 260.303 38.739 260.32 38.2856C260.32 38.09 260.32 37.9005 260.32 37.7049C260.343 37.4994 260.378 37.2954 260.424 37.0937L261.775 30.7366H260.161L260.98 26.9591H262.594L263.517 22.607H268.529L267.606 26.9591H270.143L269.348 30.7366H266.811L265.833 35.3271C265.833 35.4188 265.833 35.4983 265.797 35.5778C265.791 35.653 265.791 35.7286 265.797 35.8039C265.783 35.9097 265.794 36.0172 265.829 36.1179C265.864 36.2186 265.923 36.3096 265.999 36.3839C266.076 36.4581 266.169 36.5134 266.27 36.5453C266.372 36.5773 266.48 36.5851 266.585 36.568C266.858 36.561 267.129 36.522 267.392 36.4518C267.738 36.366 268.077 36.2557 268.407 36.1218V40.0766C267.628 40.3769 266.832 40.63 266.023 40.8345C265.252 41.0212 264.462 41.1136 263.669 41.1096Z" fill="url(#paint17_linear_28_3087)"/>
<path d="M272.618 26.9347H277.637L274.678 40.8223H269.666L272.618 26.9347ZM273.755 21.5495H278.767L277.875 25.7733H272.857L273.755 21.5495Z" fill="url(#paint18_linear_28_3087)"/>
<path d="M283.761 41.0851C282.863 41.1055 281.97 40.9476 281.133 40.6206C280.44 40.3511 279.814 39.9339 279.299 39.3981C278.805 38.8732 278.429 38.2477 278.199 37.5643C277.96 36.8492 277.84 36.0995 277.844 35.3455C277.863 33.1322 278.722 31.0087 280.247 29.4041C281.042 28.5693 281.993 27.8986 283.046 27.4297C284.239 26.9187 285.526 26.6666 286.824 26.6901C287.719 26.6708 288.61 26.8266 289.446 27.1486C290.151 27.4282 290.787 27.8578 291.31 28.4077C291.801 28.9345 292.174 29.5596 292.404 30.2415C292.646 30.9603 292.765 31.7144 292.759 32.4726C292.745 34.6933 291.868 36.8216 290.314 38.4078C289.504 39.2371 288.541 39.9014 287.478 40.3638C286.303 40.8624 285.037 41.1082 283.761 41.0851ZM284.66 36.8614C285.043 36.8686 285.422 36.7782 285.76 36.5985C286.12 36.4037 286.434 36.1349 286.683 35.81C286.958 35.442 287.165 35.028 287.294 34.5875C287.445 34.0964 287.519 33.5852 287.514 33.0716C287.545 32.5126 287.397 31.9583 287.093 31.4885C286.959 31.3008 286.78 31.1494 286.573 31.048C286.366 30.9466 286.137 30.8984 285.907 30.9078C285.518 30.9096 285.135 31.0084 284.794 31.1951C284.436 31.3953 284.123 31.6656 283.871 31.9897C283.595 32.3565 283.388 32.7708 283.26 33.2122C283.105 33.7044 283.028 34.2181 283.034 34.7342C283.003 35.2932 283.151 35.8475 283.456 36.3173C283.596 36.5006 283.779 36.6462 283.989 36.7411C284.199 36.8361 284.43 36.8774 284.66 36.8614Z" fill="url(#paint19_linear_28_3087)"/>
<path d="M295.901 26.9346H300.43L299.978 28.9946C300.588 28.2409 301.373 27.6472 302.264 27.2647C303.246 26.8501 304.303 26.642 305.369 26.6535C305.905 26.6358 306.439 26.7252 306.94 26.9163C307.319 27.0697 307.653 27.3156 307.912 27.6315C308.15 27.9279 308.318 28.275 308.401 28.6461C308.491 29.0225 308.536 29.4083 308.535 29.7953C308.535 30.1224 308.512 30.4492 308.468 30.7733C308.425 31.085 308.376 31.3846 308.321 31.6657L306.396 40.8039H301.378L303.046 32.986C303.093 32.7607 303.12 32.5315 303.126 32.3014C303.154 31.9519 303.045 31.6051 302.82 31.3356C302.726 31.2387 302.613 31.1621 302.487 31.1106C302.362 31.0591 302.228 31.0337 302.093 31.0361C301.638 31.0883 301.211 31.2805 300.87 31.5863C300.373 31.9786 299.958 32.4645 299.648 33.0166L297.985 40.8223H292.973L295.901 26.9346Z" fill="url(#paint20_linear_28_3087)"/>
<path d="M314.275 41.0851C313.151 41.0839 312.036 40.8768 310.987 40.4739C310.034 40.121 309.191 39.5245 308.542 38.7441L310.821 35.755C311.458 36.2933 312.163 36.7454 312.918 37.0998C313.533 37.3966 314.204 37.5572 314.886 37.5705C315.15 37.5982 315.415 37.5238 315.626 37.3626C315.702 37.2812 315.759 37.1846 315.795 37.0792C315.831 36.9739 315.844 36.8622 315.834 36.7514C315.826 36.6407 315.794 36.5331 315.739 36.4367C315.684 36.3404 315.607 36.2578 315.516 36.1951C315.163 35.9472 314.77 35.7612 314.355 35.645C313.699 35.4351 313.056 35.1882 312.429 34.9054C311.976 34.7008 311.546 34.4488 311.145 34.1536C310.832 33.9253 310.575 33.6285 310.394 33.2856C310.23 32.9487 310.149 32.578 310.155 32.2037C310.149 31.4469 310.328 30.7001 310.675 30.0276C311.018 29.3476 311.497 28.7445 312.081 28.255C312.702 27.7398 313.41 27.3384 314.171 27.0692C314.982 26.7739 315.839 26.6269 316.702 26.6352C317.615 26.6233 318.525 26.7553 319.397 27.0264C320.304 27.3622 321.111 27.9214 321.745 28.6523L319.238 31.6597C318.663 31.2116 318.049 30.8148 317.405 30.4738C316.966 30.2389 316.478 30.1112 315.98 30.101C315.723 30.0892 315.469 30.1694 315.265 30.3271C315.178 30.4023 315.109 30.4964 315.063 30.6024C315.018 30.7083 314.997 30.8232 315.002 30.9384C315.004 31.0564 315.038 31.1718 315.101 31.272C315.163 31.3722 315.252 31.4534 315.357 31.5068C315.763 31.7289 316.194 31.9033 316.641 32.0264C317.818 32.3159 318.929 32.8307 319.911 33.5423C320.222 33.7971 320.47 34.1195 320.638 34.485C320.805 34.8505 320.887 35.2493 320.877 35.6511C320.887 36.4172 320.724 37.1757 320.4 37.87C320.085 38.5353 319.625 39.122 319.055 39.5876C318.433 40.0826 317.724 40.4577 316.965 40.6939C316.094 40.9651 315.187 41.0971 314.275 41.0851Z" fill="url(#paint21_linear_28_3087)"/>
<path d="M69.4503 4.27556H70.2694C70.458 4.27338 70.6407 4.20891 70.7889 4.09218C70.9486 3.97494 71.0596 3.80307 71.1007 3.60929L71.3024 2.46625C71.3235 2.37901 71.3234 2.28799 71.3021 2.20079C71.2809 2.1136 71.239 2.03275 71.1801 1.96503C71.12 1.90348 71.0475 1.85533 70.9674 1.82373C70.8874 1.79213 70.8016 1.77779 70.7156 1.78165H69.8904C69.6975 1.78062 69.5099 1.84529 69.3586 1.96503C69.201 2.09002 69.0945 2.26826 69.0591 2.46625L68.8574 3.59096C68.8403 3.6745 68.8424 3.76083 68.8636 3.84343C68.8847 3.92603 68.9244 4.00273 68.9796 4.06773C69.0383 4.1345 69.1107 4.18769 69.192 4.22358C69.2733 4.25947 69.3614 4.27721 69.4503 4.27556Z" fill="url(#paint22_linear_28_3087)"/>
<path d="M72.4333 4.0983C72.5576 4.2142 72.7218 4.27769 72.8917 4.27557H73.7169C73.9036 4.2725 74.084 4.20806 74.2304 4.09219C74.3918 3.97661 74.5032 3.80399 74.5421 3.6093L74.7438 2.46626C74.766 2.37722 74.7653 2.28401 74.7418 2.1953C74.7183 2.1066 74.6727 2.02528 74.6093 1.95892C74.5501 1.90003 74.4793 1.85391 74.4015 1.82342C74.3237 1.79293 74.2405 1.77872 74.157 1.78166H73.3379C73.1511 1.78291 72.9694 1.84278 72.8184 1.95281C72.7309 2.01158 72.656 2.08729 72.5983 2.17548C72.5405 2.26368 72.5011 2.36255 72.4822 2.46626L72.3049 3.59096C72.2789 3.67927 72.277 3.77296 72.2996 3.86221C72.3222 3.95147 72.3684 4.03301 72.4333 4.0983Z" fill="url(#paint23_linear_28_3087)"/>
<path d="M81.3149 4.23277H82.1401C82.3271 4.23159 82.5081 4.16693 82.6535 4.0494C82.8168 3.9356 82.9288 3.76216 82.9653 3.56651L83.1731 2.42347C83.1905 2.33606 83.1886 2.24591 83.1674 2.15933C83.1463 2.07274 83.1065 1.99182 83.0508 1.92224C82.9907 1.86069 82.9182 1.81254 82.8381 1.78094C82.7581 1.74934 82.6723 1.735 82.5863 1.73887H81.7611C81.5642 1.737 81.3729 1.80461 81.2208 1.92982C81.0688 2.05503 80.9657 2.22982 80.9298 2.42347L80.7281 3.59096C80.7075 3.67434 80.7078 3.76154 80.7292 3.84474C80.7505 3.92795 80.7921 4.00456 80.8503 4.06773C80.9121 4.12599 80.9853 4.17075 81.0652 4.19917C81.1452 4.22758 81.2302 4.23903 81.3149 4.23277Z" fill="url(#paint24_linear_28_3087)"/>
<path d="M84.3283 4.05551C84.3876 4.11441 84.4583 4.16052 84.5361 4.19101C84.6139 4.2215 84.6972 4.23571 84.7807 4.23277H85.6058C85.7928 4.23159 85.9739 4.16693 86.1193 4.0494C86.2774 3.94143 86.3887 3.77766 86.431 3.59096L86.6389 2.44792C86.6594 2.35879 86.6579 2.26601 86.6344 2.1776C86.611 2.08919 86.5664 2.00784 86.5044 1.94058C86.4451 1.88169 86.3744 1.83557 86.2966 1.80508C86.2188 1.77459 86.1356 1.76038 86.0521 1.76332H85.2269C85.04 1.76457 84.8583 1.82444 84.7073 1.93447C84.5338 2.05533 84.4152 2.2399 84.3772 2.44792L84.1694 3.59096C84.155 3.67551 84.162 3.76231 84.1897 3.84346C84.2175 3.92461 84.2651 3.99751 84.3283 4.05551Z" fill="url(#paint25_linear_28_3087)"/>
<path d="M93.7783 3.11419H92.4213C92.359 3.0413 92.3131 2.95582 92.2868 2.86357C92.2364 2.66295 92.2364 2.45295 92.2868 2.25232C92.3479 1.91002 92.5191 1.52493 93.3137 1.52493H93.6621H93.9678C94.1029 1.53584 94.2372 1.49529 94.3437 1.41142C94.4503 1.32755 94.5212 1.20654 94.5423 1.07261L94.5974 0.773095C94.5974 0.650844 94.5973 0.430794 94.2673 0.302431C94.1267 0.271868 93.9861 0.253531 93.8394 0.235193H93.4421C92.844 0.210584 92.2529 0.370642 91.7489 0.693632C91.5134 0.868422 91.3156 1.08902 91.1675 1.34217C91.0194 1.59532 90.924 1.87579 90.887 2.16675C90.8442 2.39846 90.8319 2.63478 90.8504 2.86969C90.8572 2.96481 90.8736 3.05901 90.8993 3.15086C90.3858 3.15086 90.288 3.45649 90.2513 3.58485L90.1902 3.94549C90.1902 4.05552 90.1474 4.41615 90.7037 4.41615H93.5582C93.6833 4.42087 93.8081 4.40007 93.925 4.35503C94.0064 4.31906 94.077 4.26228 94.1296 4.19039C94.1822 4.1185 94.2149 4.03404 94.2245 3.94549L94.2856 3.60319C94.2917 3.47483 94.3162 3.11419 93.7783 3.11419Z" fill="url(#paint26_linear_28_3087)"/>
<path d="M92.9102 7.179C92.9267 7.10468 92.9277 7.02773 92.9129 6.95303C92.8982 6.87833 92.8681 6.80749 92.8246 6.74502C92.775 6.6815 92.7107 6.63103 92.6372 6.59801C92.5637 6.56499 92.4832 6.55041 92.4028 6.55553H91.382C91.2937 6.55311 91.2058 6.5699 91.1246 6.60472C91.0433 6.63955 90.9706 6.69158 90.9114 6.75724C90.7909 6.87104 90.7114 7.02146 90.6852 7.18512L90.4468 8.70713C90.3735 9.17168 90.294 9.6179 90.2145 10.058L89.7378 12.7597C89.7262 12.9259 89.676 13.0871 89.5911 13.2304C89.3723 13.3012 89.1414 13.3261 88.9126 13.3037H85.9664L87.2316 6.20711C87.2676 6.07804 87.2522 5.94007 87.1889 5.82203C87.1493 5.76283 87.0969 5.71337 87.0355 5.67738C86.9741 5.64138 86.9053 5.61978 86.8343 5.6142C86.3713 5.48275 85.8962 5.39878 85.4162 5.36359C84.86 5.31469 84.2854 5.29024 83.7047 5.29024C82.2798 5.23371 80.8782 5.66496 79.7316 6.51274C78.646 7.38514 77.9317 8.6368 77.7328 10.0152L77.6411 10.5225C77.5192 11.1442 77.5192 11.7836 77.6411 12.4052C77.7082 12.7177 77.8303 13.0157 78.0017 13.2854H75.3856C75.0635 13.3069 74.7423 13.2325 74.4626 13.0715C74.2425 12.9248 74.267 12.503 74.3281 12.1729L75.3856 6.23156C75.4204 6.10971 75.4204 5.98055 75.3856 5.8587C75.351 5.79203 75.3006 5.73486 75.2388 5.69223C75.177 5.6496 75.1057 5.6228 75.0311 5.6142C74.8721 5.57141 74.6949 5.53474 74.4809 5.49806L73.7841 5.42471C73.5518 5.39415 73.3134 5.37581 73.0751 5.35747H72.4271C71.6489 5.35365 70.8731 5.44395 70.1166 5.62642C69.4201 5.79315 68.7567 6.07627 68.1545 6.46384C67.5644 6.86993 67.0631 7.39195 66.6814 7.99808C66.2721 8.68224 65.9943 9.43684 65.8623 10.223L65.7645 10.7732C65.5139 12.1974 65.6911 13.3037 66.3024 14.0617C66.9136 14.8196 67.9039 15.2047 69.2731 15.2047H69.4626C70.0475 15.206 70.6304 15.1362 71.1985 14.9969C71.5968 14.9037 71.9715 14.7288 72.2988 14.4835C72.4606 14.833 72.7426 15.1128 73.0934 15.272C73.6102 15.4851 74.1667 15.5851 74.7254 15.5654H87.9835H88.7475C89.0226 15.5654 89.2916 15.5654 89.5544 15.5226L90.2451 15.4553C90.4307 15.4444 90.6138 15.4074 90.7891 15.3453C90.9874 15.2816 91.1649 15.1654 91.3026 15.0091C91.4102 14.8731 91.4949 14.7203 91.5532 14.5568C91.6866 14.1047 91.7947 13.6456 91.8771 13.1815C91.9872 12.5988 92.1033 11.9692 92.2256 11.2927L92.5801 9.30616C92.629 9.02498 92.6779 8.69491 92.7329 8.39539C92.7879 8.09588 92.8429 7.65578 92.9102 7.179ZM79.9394 10.1008C80.0344 9.3199 80.4076 8.59942 80.9908 8.07143C81.6173 7.59988 82.3899 7.364 83.1729 7.40517C83.5397 7.40517 83.8575 7.40517 84.1448 7.40517C84.4321 7.40517 84.5727 7.43573 84.7561 7.46018L83.7353 13.371H81.9015C81.5675 13.4115 81.2287 13.3679 80.9159 13.244C80.6031 13.1202 80.3263 12.9201 80.1106 12.6619C79.7662 12.0192 79.6809 11.269 79.8722 10.5653L79.9394 10.1008ZM70.2755 13.0042H69.8782C69.0347 13.0042 68.4784 12.7964 68.2156 12.393C67.9289 11.8261 67.8593 11.1739 68.02 10.5592L68.0995 10.1191C68.1727 9.65454 68.3345 9.20837 68.5762 8.80493C68.7814 8.48473 69.0522 8.21179 69.3709 8.00419C69.6984 7.79569 70.0641 7.6544 70.4467 7.58854C70.8991 7.49411 71.3598 7.44497 71.822 7.44184C71.9992 7.44184 72.1887 7.44184 72.3966 7.44184L72.9161 7.48463L72.097 12.0812C72.0737 12.2395 72.0059 12.3879 71.9014 12.5091C71.7818 12.6281 71.6408 12.7235 71.4858 12.7903C71.3016 12.8656 71.1085 12.9169 70.9112 12.9431C70.7006 12.9753 70.4884 12.9957 70.2755 13.0042Z" fill="url(#paint27_linear_28_3087)"/>
<path d="M111.731 4.23275H112.641C112.835 4.23408 113.024 4.16698 113.173 4.04326C113.327 3.92636 113.432 3.75637 113.467 3.56649L113.668 2.42345C113.687 2.33648 113.686 2.24658 113.666 2.16002C113.645 2.07345 113.607 1.9923 113.552 1.92222C113.494 1.86298 113.425 1.81618 113.348 1.78465C113.271 1.75312 113.189 1.73754 113.106 1.73885H112.165C111.977 1.74146 111.795 1.80352 111.645 1.91611C111.482 2.04053 111.37 2.22143 111.333 2.42345L111.138 3.59094C111.12 3.67488 111.122 3.76198 111.144 3.84492C111.166 3.92787 111.208 4.00427 111.266 4.06771C111.328 4.12597 111.401 4.17073 111.481 4.19914C111.561 4.22756 111.646 4.239 111.731 4.23275Z" fill="url(#paint28_linear_28_3087)"/>
<path d="M122.214 1.7572H121.174C121 1.75789 120.833 1.82324 120.704 1.94057C120.567 2.05125 120.473 2.20733 120.441 2.38067L118.607 12.7719C118.598 12.9385 118.547 13.1002 118.46 13.2426C118.46 13.2426 118.326 13.316 117.794 13.316H114.61L115.881 6.21933C115.909 6.08973 115.894 5.95457 115.838 5.83424C115.797 5.77624 115.745 5.72767 115.684 5.69181C115.622 5.65596 115.554 5.63366 115.484 5.62642C115.019 5.49502 114.541 5.41105 114.059 5.37581C113.509 5.32691 112.935 5.30246 112.354 5.30246C110.927 5.246 109.524 5.67717 108.375 6.52496C107.292 7.3984 106.58 8.64993 106.382 10.0274L106.29 10.5348C106.166 11.1561 106.166 11.7961 106.29 12.4174C106.358 12.7287 106.478 13.0263 106.645 13.2976H98.5093C98.323 13.2977 98.137 13.2834 97.953 13.2548C97.8343 13.2392 97.7211 13.1951 97.6229 13.1265C97.545 13.056 97.4933 12.9612 97.4762 12.8575C97.4382 12.6556 97.4382 12.4482 97.4762 12.2463L99.2672 2.36845C99.2973 2.21698 99.2689 2.05974 99.1877 1.92835C99.1388 1.86833 99.0759 1.82132 99.0044 1.79146C98.933 1.76161 98.8553 1.74984 98.7782 1.7572H97.7452C97.5636 1.75961 97.3893 1.82931 97.2562 1.9528C97.1275 2.07122 97.0397 2.22747 97.0056 2.39901L95.1718 12.6986C95.0773 13.1529 95.0587 13.6197 95.1168 14.08C95.1674 14.4226 95.3234 14.7409 95.563 14.9908C95.804 15.2272 96.1071 15.3904 96.4371 15.4615C96.8386 15.549 97.2488 15.59 97.6596 15.5837H116.81H117.593C117.868 15.5837 118.143 15.5837 118.405 15.5409L119.115 15.4737C119.308 15.4637 119.5 15.4267 119.683 15.3637C119.883 15.3014 120.06 15.1799 120.19 15.0152C120.291 14.884 120.369 14.7375 120.423 14.5813C120.484 14.4101 120.539 14.2084 120.594 13.97C120.649 13.7316 120.698 13.536 120.747 13.3099C120.795 13.0837 120.838 12.8636 120.875 12.6497L122.709 2.3929C122.725 2.31858 122.726 2.24163 122.711 2.16692C122.697 2.09222 122.667 2.02139 122.623 1.95891C122.577 1.89412 122.515 1.84179 122.444 1.8066C122.372 1.77141 122.293 1.75443 122.214 1.7572ZM108.601 10.1008C108.693 9.3189 109.067 8.59734 109.652 8.07142C110.281 7.59944 111.056 7.36359 111.841 7.40516C112.201 7.40516 112.525 7.40516 112.806 7.40516C113.088 7.40516 113.234 7.43572 113.418 7.46017L112.397 13.371H110.563C110.23 13.4116 109.892 13.368 109.58 13.2441C109.268 13.1202 108.993 12.92 108.778 12.6619C108.431 12.0201 108.345 11.2687 108.54 10.5653L108.601 10.1008Z" fill="url(#paint29_linear_28_3087)"/>
<path d="M126.37 1.75718H125.337C125.155 1.7596 124.981 1.82929 124.848 1.95278C124.719 2.0712 124.632 2.22746 124.597 2.39899L122.36 14.9358C122.344 15.0124 122.343 15.0917 122.359 15.1686C122.375 15.2454 122.406 15.3181 122.452 15.382C122.5 15.4465 122.563 15.4985 122.635 15.5336C122.708 15.5687 122.787 15.5859 122.868 15.5837H123.901C123.991 15.5833 124.08 15.5646 124.163 15.5289C124.246 15.4932 124.321 15.4412 124.384 15.3759C124.507 15.2574 124.59 15.1036 124.622 14.9358L126.835 2.36843C126.865 2.21696 126.836 2.05973 126.755 1.92833C126.709 1.87184 126.65 1.82696 126.583 1.79725C126.516 1.76754 126.443 1.75382 126.37 1.75718Z" fill="url(#paint30_linear_28_3087)"/>
<path d="M136.615 4.27556H137.44C137.627 4.27342 137.807 4.20887 137.953 4.09218C138.117 3.97839 138.229 3.80494 138.265 3.60929L138.448 2.46625C138.47 2.37901 138.469 2.28799 138.448 2.20079C138.427 2.1136 138.385 2.03275 138.326 1.96503C138.266 1.90348 138.194 1.85533 138.114 1.82373C138.033 1.79213 137.948 1.77779 137.862 1.78165H137.043C136.85 1.77963 136.662 1.84441 136.511 1.96503C136.352 2.08885 136.245 2.26765 136.211 2.46625L136.003 3.59096C135.983 3.67434 135.983 3.76154 136.005 3.84474C136.026 3.92794 136.068 4.00456 136.126 4.06773C136.186 4.13694 136.262 4.19157 136.346 4.22756C136.431 4.26354 136.523 4.27995 136.615 4.27556Z" fill="url(#paint31_linear_28_3087)"/>
<path d="M139.61 4.0983C139.669 4.1572 139.74 4.20331 139.818 4.2338C139.896 4.26429 139.979 4.2785 140.062 4.27557H140.894C141.081 4.27438 141.262 4.20972 141.407 4.09219C141.57 3.97727 141.684 3.8047 141.725 3.6093L141.927 2.46626C141.948 2.37716 141.946 2.28424 141.923 2.19573C141.9 2.10723 141.855 2.02589 141.792 1.95892C141.733 1.90003 141.662 1.85391 141.584 1.82342C141.507 1.79293 141.423 1.77872 141.34 1.78166H140.515C140.328 1.78412 140.147 1.84387 139.995 1.95281C139.822 2.07367 139.703 2.25824 139.665 2.46626L139.451 3.59096C139.431 3.68204 139.435 3.77686 139.463 3.86592C139.49 3.95497 139.541 4.03512 139.61 4.0983Z" fill="url(#paint32_linear_28_3087)"/>
<path d="M152.471 15.003L152.672 13.8844C152.691 13.8048 152.689 13.7216 152.665 13.6432C152.641 13.5649 152.598 13.4941 152.538 13.4382C152.424 13.3465 152.281 13.2988 152.134 13.3037H147.923C147.744 13.2013 147.587 13.0633 147.463 12.8983C147.339 12.7333 147.25 12.5447 147.202 12.344C147.021 11.7386 146.996 11.0975 147.128 10.4797L147.171 10.223C147.217 9.81505 147.346 9.42082 147.55 9.06449C147.754 8.70816 148.029 8.39726 148.357 8.15086C149.089 7.69557 149.941 7.47186 150.802 7.50905C151.169 7.50905 151.487 7.50905 151.762 7.50905L152.685 7.57017C152.841 7.59387 153.002 7.56823 153.143 7.49682C153.242 7.45281 153.328 7.38319 153.391 7.2951C153.455 7.20701 153.493 7.10364 153.504 6.9956L153.656 6.14596C153.683 6.06044 153.683 5.96869 153.656 5.88331C153.628 5.79794 153.575 5.72314 153.504 5.66918C153.376 5.59563 153.234 5.54787 153.088 5.52859C152.693 5.47388 152.295 5.4392 151.896 5.42468H150.967C150.269 5.42103 149.574 5.51358 148.901 5.69974C148.257 5.87804 147.648 6.16766 147.104 6.5555C146.559 6.95055 146.098 7.44906 145.747 8.0225C145.367 8.64828 145.112 9.3415 144.995 10.0641L144.952 10.2964C144.817 10.9639 144.78 11.6475 144.842 12.3257C144.874 12.6734 144.96 13.0138 145.099 13.3343H142.519C142.196 13.3548 141.873 13.2805 141.59 13.1203C141.376 12.9736 141.401 12.5519 141.456 12.2218L142.519 6.28043C142.555 6.15863 142.555 6.02937 142.519 5.90757C142.486 5.83986 142.436 5.78181 142.374 5.73899C142.312 5.69618 142.24 5.67004 142.165 5.66307C142.012 5.62028 141.829 5.58361 141.615 5.54693L140.93 5.42468C140.704 5.39412 140.466 5.37578 140.221 5.35744H139.61C138.83 5.35366 138.052 5.44396 137.293 5.62639C136.595 5.79886 135.931 6.09042 135.331 6.48826C134.738 6.89097 134.236 7.41365 133.858 8.0225C133.444 8.7042 133.166 9.45981 133.039 10.2475L132.941 10.7976C132.691 12.2218 132.868 13.3282 133.473 14.0861C134.078 14.8441 135.056 15.2047 136.425 15.2047H136.615C137.198 15.206 137.779 15.1362 138.345 14.9969C138.743 14.905 139.118 14.7301 139.445 14.4834C139.609 14.8334 139.893 15.1131 140.246 15.2719C140.762 15.4856 141.319 15.5857 141.878 15.5653H151.725C151.88 15.5655 152.032 15.5233 152.165 15.4431C152.246 15.3978 152.316 15.3346 152.369 15.2583C152.422 15.1821 152.456 15.0947 152.471 15.003ZM137.428 13.0042H137.024C136.187 13.0042 135.625 12.7964 135.368 12.3929C135.081 11.826 135.012 11.1738 135.172 10.5592L135.252 10.1191C135.321 9.65365 135.484 9.20684 135.728 8.8049C135.931 8.48498 136.2 8.212 136.517 8.00416C136.847 7.79563 137.214 7.65437 137.599 7.58851C138.05 7.50024 138.509 7.45724 138.968 7.46015C139.151 7.46015 139.341 7.46015 139.543 7.46015L140.068 7.50294L139.249 12.0995C139.227 12.2592 139.156 12.4084 139.048 12.5274C138.932 12.6482 138.792 12.7439 138.638 12.8086C138.454 12.8831 138.261 12.9345 138.063 12.9614C137.852 12.9873 137.64 13.0016 137.428 13.0042Z" fill="url(#paint33_linear_28_3087)"/>
<path d="M236.768 1.7572H235.729C235.555 1.7579 235.387 1.82325 235.259 1.94058C235.135 2.0529 235.053 2.2037 235.026 2.36845L233.193 12.7597C233.178 12.9245 233.13 13.0846 233.052 13.2304C233.052 13.2304 232.917 13.3037 232.392 13.3037H230.252C230.136 13.3037 229.996 13.3037 229.831 13.3037C229.675 13.2903 229.52 13.2679 229.366 13.2365C229.229 13.2075 229.096 13.1623 228.969 13.102C228.915 13.0825 228.872 13.0431 228.847 12.992L229.922 6.64721C229.939 6.57292 229.94 6.49589 229.926 6.42113C229.911 6.34637 229.881 6.27554 229.837 6.21323C229.79 6.15077 229.729 6.10077 229.659 6.0677C229.589 6.03463 229.511 6.01953 229.433 6.02374H228.437C228.264 6.02389 228.097 6.08688 227.966 6.201C227.825 6.313 227.728 6.47089 227.691 6.64721L226.591 12.7964C226.58 12.8957 226.532 12.9872 226.457 13.0531C226.358 13.1346 226.243 13.1949 226.12 13.2304C225.969 13.2753 225.813 13.304 225.656 13.316C225.485 13.316 225.338 13.316 225.216 13.316H224.941C224.605 13.3164 224.269 13.2877 223.938 13.2304C223.626 13.1754 223.553 13.0531 223.535 12.9859L224.525 7.4235C224.542 7.34918 224.542 7.27223 224.528 7.19753C224.513 7.12283 224.483 7.05199 224.439 6.98952C224.392 6.92785 224.331 6.87843 224.261 6.84544C224.191 6.81246 224.114 6.79688 224.036 6.80003H223.058C222.885 6.80454 222.718 6.86939 222.587 6.9834C222.45 7.09408 222.357 7.25016 222.325 7.4235L221.371 12.772C221.36 12.8667 221.315 12.954 221.243 13.0165C221.156 13.0968 221.051 13.1554 220.937 13.1876C220.797 13.2315 220.654 13.2642 220.509 13.2854C220.373 13.3036 220.237 13.3138 220.1 13.316H219.659C219.537 13.316 219.397 13.316 219.238 13.316C219.084 13.3034 218.93 13.281 218.779 13.2487C218.65 13.2188 218.525 13.1736 218.406 13.1143C218.355 13.0935 218.314 13.0542 218.29 13.0042L219.152 8.16923C219.169 8.09429 219.171 8.01672 219.157 7.94113C219.143 7.86554 219.115 7.79345 219.073 7.72913C219.029 7.66153 218.968 7.60673 218.896 7.57024C218.824 7.53375 218.744 7.51687 218.663 7.52131H217.691C217.602 7.52221 217.514 7.54107 217.432 7.57677C217.35 7.61248 217.276 7.66429 217.214 7.72913C217.091 7.84761 217.008 8.00139 216.976 8.16923L216.175 12.7597C216.16 12.8656 216.108 12.9627 216.029 13.0348C215.935 13.1171 215.824 13.1776 215.705 13.2121C215.562 13.2593 215.414 13.288 215.265 13.2976C215.1 13.2976 214.953 13.2976 214.818 13.2976H156.817L157.905 7.18512C157.921 7.11079 157.922 7.03385 157.907 6.95914C157.893 6.88444 157.863 6.81361 157.819 6.75113C157.777 6.68887 157.719 6.63867 157.652 6.60545C157.584 6.57223 157.509 6.55713 157.434 6.56164H156.401C156.314 6.56062 156.228 6.57684 156.147 6.60936C156.066 6.64188 155.992 6.69006 155.93 6.75113C155.802 6.86411 155.716 7.01704 155.686 7.18512L154.017 16.5495C153.963 16.9258 153.866 17.2948 153.73 17.6497C153.652 17.8517 153.516 18.026 153.339 18.151C153.141 18.2773 152.918 18.3568 152.685 18.3832C152.311 18.4264 151.936 18.4468 151.56 18.4444H151.12C150.962 18.425 150.803 18.4678 150.677 18.5637C150.55 18.6595 150.466 18.8009 150.441 18.9578L150.282 19.8686C150.266 19.9299 150.261 19.9939 150.27 20.0569C150.278 20.1199 150.299 20.1805 150.331 20.2353C150.425 20.3427 150.556 20.4104 150.698 20.4248C150.89 20.4617 151.084 20.4842 151.279 20.4921H151.743C152.459 20.5089 153.172 20.4035 153.852 20.1803C154.449 19.9541 154.967 19.5591 155.344 19.0434C155.576 18.717 155.755 18.356 155.875 17.9737C156.009 17.5551 156.115 17.1284 156.193 16.6962L156.395 15.5654H214.287C214.47 15.5654 214.678 15.5654 214.898 15.5654C215.143 15.5522 215.387 15.5154 215.625 15.4553C215.87 15.3942 216.114 15.3209 216.359 15.2353C216.553 15.1638 216.737 15.0694 216.909 14.9541C217.202 15.2017 217.553 15.3701 217.93 15.4431C218.331 15.5364 218.74 15.5856 219.152 15.5898H219.507C220.409 15.6248 221.302 15.3999 222.08 14.9419C222.377 15.1781 222.721 15.3489 223.089 15.4431C223.529 15.5472 223.981 15.5964 224.433 15.5898H224.776C225.232 15.5865 225.686 15.5373 226.133 15.4431C226.569 15.3615 226.985 15.1932 227.355 14.948C227.695 15.2007 228.088 15.3722 228.504 15.4492C228.941 15.5363 229.385 15.5833 229.831 15.5898H230.442H232.123C232.398 15.5898 232.673 15.5898 232.936 15.547L233.645 15.4798C233.839 15.4698 234.03 15.4328 234.213 15.3698C234.415 15.3073 234.594 15.186 234.727 15.0214C234.823 14.8884 234.899 14.7422 234.953 14.5874C235.014 14.4162 235.069 14.2145 235.124 13.9761C235.179 13.7377 235.228 13.5421 235.277 13.316C235.326 13.0898 235.369 12.8698 235.405 12.6558L237.239 2.39902C237.256 2.32469 237.257 2.24775 237.242 2.17304C237.227 2.09834 237.197 2.02751 237.153 1.96503C237.11 1.90251 237.053 1.85111 236.986 1.81499C236.919 1.77888 236.844 1.75908 236.768 1.7572Z" fill="url(#paint34_linear_28_3087)"/>
<path d="M240.809 1.7572H239.769C239.59 1.75936 239.417 1.8292 239.287 1.9528C239.156 2.06953 239.068 2.22655 239.036 2.39901L236.799 14.9174C236.782 14.9941 236.782 15.0734 236.797 15.1502C236.813 15.2271 236.845 15.2998 236.89 15.3637C236.938 15.4282 237.001 15.4802 237.074 15.5153C237.146 15.5504 237.226 15.5676 237.306 15.5654H238.339C238.429 15.5643 238.518 15.5453 238.601 15.5097C238.684 15.474 238.759 15.4223 238.822 15.3575C238.945 15.2391 239.028 15.0853 239.06 14.9174L241.298 2.36845C241.328 2.21698 241.299 2.05974 241.218 1.92835C241.169 1.86833 241.106 1.82132 241.035 1.79146C240.963 1.76161 240.886 1.74984 240.809 1.7572Z" fill="url(#paint35_linear_28_3087)"/>
<path d="M255.399 1.75721H254.342C254.167 1.75898 253.999 1.82663 253.871 1.9467C253.744 2.05936 253.659 2.21277 253.633 2.38069L251.359 15.1069C251.31 15.3759 251.255 15.6571 251.2 15.9505C251.145 16.2439 251.09 16.4884 251.016 16.8123C250.77 16.8569 250.521 16.8855 250.271 16.8979H249.354C248.52 16.9385 247.687 16.8032 246.909 16.5006C246.411 16.2921 245.997 15.9217 245.735 15.4492C245.495 14.9531 245.384 14.4044 245.411 13.8539C245.435 13.1689 245.508 12.4866 245.631 11.8123C245.674 11.58 245.741 11.2866 245.827 10.9443L246.084 9.96021C246.123 9.8781 246.143 9.78831 246.143 9.69737C246.143 9.60643 246.123 9.51663 246.084 9.43453C246.038 9.376 245.978 9.32975 245.91 9.29989C245.841 9.27003 245.767 9.25749 245.692 9.26338H244.806C244.638 9.27276 244.479 9.33805 244.352 9.44884C244.226 9.55964 244.14 9.70954 244.109 9.87463C244.024 10.0825 243.95 10.3147 243.877 10.5592C243.804 10.8037 243.73 11.0605 243.669 11.305C243.608 11.5495 243.541 11.7878 243.486 12.0079C243.431 12.228 243.394 12.4174 243.37 12.5641C243.194 13.4697 243.136 14.3944 243.199 15.3148C243.249 16.0766 243.512 16.8092 243.957 17.4297C244.426 18.0373 245.064 18.4941 245.79 18.7439C246.791 19.0722 247.842 19.2232 248.895 19.1901C249.507 19.1901 250.118 19.1901 250.644 19.1168C251.182 19.0641 251.717 18.9804 252.245 18.8661C252.406 18.8321 252.56 18.7678 252.697 18.6767C252.845 18.5659 252.947 18.4051 252.985 18.2243C253.046 17.9968 253.095 17.7662 253.131 17.5336L253.315 16.629C253.388 16.305 253.449 16.0177 253.51 15.7182C253.572 15.4187 253.614 15.2047 253.639 15.0336L255.894 2.36846C255.91 2.29372 255.91 2.21653 255.894 2.14182C255.878 2.0671 255.847 1.99649 255.803 1.93447C255.755 1.87425 255.693 1.82661 255.623 1.79571C255.553 1.76481 255.476 1.7516 255.399 1.75721Z" fill="url(#paint36_linear_28_3087)"/>
<path d="M324 13.646C324 13.5421 324 13.4382 324 13.316L323.389 10.4981C323.202 9.64682 322.902 8.82447 322.496 8.05308C322.171 7.45856 321.725 6.93818 321.188 6.52495C320.686 6.14937 320.108 5.88667 319.495 5.75478C318.841 5.61041 318.172 5.54069 317.502 5.54695C317.246 5.54695 316.891 5.54695 316.512 5.58974C316.145 5.6157 315.779 5.66469 315.418 5.73644C315.24 5.76118 315.073 5.8353 314.935 5.95038C314.821 6.05974 314.746 6.20364 314.721 6.35991L314.568 7.22789C314.55 7.29321 314.548 7.36203 314.563 7.42817C314.578 7.49432 314.609 7.55572 314.654 7.60687C314.727 7.67009 314.813 7.71523 314.907 7.7386C315 7.76197 315.098 7.76291 315.192 7.74134L315.571 7.71078H316.029L316.427 7.68022H316.683C317.699 7.61022 318.71 7.87424 319.562 8.43206C320.261 9.0292 320.741 9.84225 320.925 10.7426L321.573 13.371H311.909C311.787 13.371 311.647 13.371 311.488 13.371C311.334 13.358 311.181 13.3355 311.029 13.3037C310.9 13.2748 310.774 13.2296 310.656 13.1693C310.605 13.1485 310.564 13.1092 310.54 13.0592L312.429 2.36844C312.446 2.29412 312.446 2.21717 312.432 2.14247C312.417 2.06776 312.387 1.99693 312.343 1.93445C312.296 1.87278 312.235 1.82336 312.165 1.79038C312.095 1.7574 312.017 1.74182 311.94 1.74497H310.901C310.726 1.74447 310.558 1.80998 310.43 1.92834C310.293 2.03902 310.2 2.1951 310.167 2.36844L308.334 12.7597C308.318 12.8656 308.266 12.9627 308.187 13.0348C308.09 13.1163 307.978 13.1766 307.857 13.212C307.71 13.2582 307.558 13.2869 307.404 13.2976C307.239 13.2976 307.087 13.2976 306.952 13.2976H264.024L265.246 6.28656C265.282 6.1568 265.264 6.01828 265.198 5.90148C265.116 5.80021 265.005 5.72742 264.88 5.69365C264.442 5.56208 263.991 5.47806 263.535 5.44304C263.009 5.39414 262.459 5.36969 261.891 5.36969C260.4 5.31207 258.938 5.79141 257.771 6.72055C256.675 7.65878 255.954 8.96106 255.742 10.3881L255.644 10.9137C255.369 12.4541 255.57 13.6216 256.255 14.3979C256.94 15.1742 257.997 15.5593 259.476 15.5593H261.371L261.261 16.1705C261.188 16.5761 261.035 16.9628 260.809 17.3074C260.626 17.5828 260.378 17.8094 260.087 17.9676C259.733 18.1401 259.353 18.2537 258.963 18.3038C258.466 18.368 257.966 18.3986 257.465 18.3955C257.239 18.3955 256.946 18.3955 256.585 18.3955H255.668C255.515 18.3844 255.364 18.431 255.244 18.526C255.124 18.6211 255.044 18.7577 255.02 18.9089L254.855 19.8441C254.839 19.9055 254.835 19.9694 254.843 20.0324C254.851 20.0953 254.872 20.156 254.904 20.2109C254.999 20.3165 255.13 20.3821 255.271 20.3943C255.402 20.4214 255.535 20.4377 255.668 20.4432L256.279 20.4859H256.891C257.123 20.4859 257.306 20.4859 257.453 20.4859C258.159 20.488 258.864 20.4183 259.556 20.2781C260.179 20.1497 260.773 19.9095 261.31 19.5691C261.848 19.2182 262.306 18.758 262.655 18.2182C263.054 17.5842 263.332 16.8816 263.474 16.1461L263.578 15.5654H306.323C306.788 15.5589 307.253 15.5119 307.71 15.4248C308.17 15.3418 308.61 15.1717 309.006 14.9236C309.135 15.0374 309.282 15.1302 309.44 15.1986C309.658 15.2947 309.885 15.3684 310.118 15.4187C310.353 15.4746 310.593 15.5114 310.834 15.5287C311.063 15.5526 311.294 15.5649 311.524 15.5654H322.832C323.078 15.5821 323.322 15.5081 323.517 15.3575C323.668 15.2191 323.767 15.0338 323.798 14.8319L323.933 14.0739C323.968 13.9336 323.99 13.7904 324 13.646ZM258.009 10.3147C258.096 9.51341 258.486 8.77579 259.1 8.25382C259.714 7.73185 260.505 7.46529 261.31 7.50907C261.658 7.50907 261.964 7.50907 262.227 7.50907L262.838 7.55186L261.799 13.371H259.929C259.604 13.4118 259.275 13.378 258.965 13.2721C258.656 13.1661 258.375 12.9909 258.144 12.7597C257.977 12.4531 257.872 12.1163 257.837 11.769C257.801 11.4216 257.835 11.0707 257.936 10.7365L258.009 10.3147Z" fill="url(#paint37_linear_28_3087)"/>
<defs>
<linearGradient id="paint0_linear_28_3087" x1="-6.68709" y1="24.0557" x2="285.656" y2="-22.5767" gradientUnits="userSpaceOnUse">
<stop stop-color="#448DFF"/>
<stop offset="1" stop-color="#4429FF"/>
</linearGradient>
<linearGradient id="paint1_linear_28_3087" x1="-5.81916" y1="29.5019" x2="286.524" y2="-17.1305" gradientUnits="userSpaceOnUse">
<stop stop-color="#448DFF"/>
<stop offset="1" stop-color="#4429FF"/>
</linearGradient>
<linearGradient id="paint2_linear_28_3087" x1="-4.43148" y1="38.2122" x2="287.912" y2="-8.42016" gradientUnits="userSpaceOnUse">
<stop stop-color="#448DFF"/>
<stop offset="1" stop-color="#4429FF"/>
</linearGradient>
<linearGradient id="paint3_linear_28_3087" x1="-8.07474" y1="15.3453" x2="284.269" y2="-31.2871" gradientUnits="userSpaceOnUse">
<stop stop-color="#448DFF"/>
<stop offset="1" stop-color="#4429FF"/>
</linearGradient>
<linearGradient id="paint4_linear_28_3087" x1="-3.58188" y1="43.5179" x2="288.761" y2="-3.10832" gradientUnits="userSpaceOnUse">
<stop stop-color="#448DFF"/>
<stop offset="1" stop-color="#4429FF"/>
</linearGradient>
<linearGradient id="paint5_linear_28_3087" x1="-3.34969" y1="44.9849" x2="288.994" y2="-1.64748" gradientUnits="userSpaceOnUse">
<stop stop-color="#448DFF"/>
<stop offset="1" stop-color="#4429FF"/>
</linearGradient>
<linearGradient id="paint6_linear_28_3087" x1="-2.24934" y1="51.8737" x2="290.094" y2="5.24135" gradientUnits="userSpaceOnUse">
<stop stop-color="#448DFF"/>
<stop offset="1" stop-color="#4429FF"/>
</linearGradient>
<linearGradient id="paint7_linear_28_3087" x1="-2.64667" y1="49.3859" x2="289.696" y2="2.75364" gradientUnits="userSpaceOnUse">
<stop stop-color="#448DFF"/>
<stop offset="1" stop-color="#4429FF"/>
</linearGradient>
<linearGradient id="paint8_linear_28_3087" x1="-2.17604" y1="52.326" x2="290.167" y2="5.6936" gradientUnits="userSpaceOnUse">
<stop stop-color="#448DFF"/>
<stop offset="1" stop-color="#4429FF"/>
</linearGradient>
<linearGradient id="paint9_linear_28_3087" x1="-1.11862" y1="58.9764" x2="291.225" y2="12.344" gradientUnits="userSpaceOnUse">
<stop stop-color="#448DFF"/>
<stop offset="1" stop-color="#4429FF"/>
</linearGradient>
<linearGradient id="paint10_linear_28_3087" x1="-1.02705" y1="59.5388" x2="291.316" y2="12.9125" gradientUnits="userSpaceOnUse">
<stop stop-color="#448DFF"/>
<stop offset="1" stop-color="#4429FF"/>
</linearGradient>
<linearGradient id="paint11_linear_28_3087" x1="-0.653983" y1="61.8677" x2="291.689" y2="15.2353" gradientUnits="userSpaceOnUse">
<stop stop-color="#448DFF"/>
<stop offset="1" stop-color="#4429FF"/>
</linearGradient>
<linearGradient id="paint12_linear_28_3087" x1="-0.556316" y1="62.4912" x2="291.787" y2="15.8588" gradientUnits="userSpaceOnUse">
<stop stop-color="#448DFF"/>
<stop offset="1" stop-color="#4429FF"/>
</linearGradient>
<linearGradient id="paint13_linear_28_3087" x1="-0.134277" y1="65.144" x2="292.209" y2="18.5116" gradientUnits="userSpaceOnUse">
<stop stop-color="#448DFF"/>
<stop offset="1" stop-color="#4429FF"/>
</linearGradient>
<linearGradient id="paint14_linear_28_3087" x1="0.611352" y1="69.8017" x2="292.955" y2="23.1694" gradientUnits="userSpaceOnUse">
<stop stop-color="#448DFF"/>
<stop offset="1" stop-color="#4429FF"/>
</linearGradient>
<linearGradient id="paint15_linear_28_3087" x1="0.506916" y1="69.166" x2="292.851" y2="22.5335" gradientUnits="userSpaceOnUse">
<stop stop-color="#448DFF"/>
<stop offset="1" stop-color="#4429FF"/>
</linearGradient>
<linearGradient id="paint16_linear_28_3087" x1="1.23478" y1="73.7443" x2="293.578" y2="27.112" gradientUnits="userSpaceOnUse">
<stop stop-color="#448DFF"/>
<stop offset="1" stop-color="#4429FF"/>
</linearGradient>
<linearGradient id="paint17_linear_28_3087" x1="1.24056" y1="73.7504" x2="293.584" y2="27.1179" gradientUnits="userSpaceOnUse">
<stop stop-color="#448DFF"/>
<stop offset="1" stop-color="#4429FF"/>
</linearGradient>
<linearGradient id="paint18_linear_28_3087" x1="1.39332" y1="74.704" x2="293.737" y2="28.0715" gradientUnits="userSpaceOnUse">
<stop stop-color="#448DFF"/>
<stop offset="1" stop-color="#4429FF"/>
</linearGradient>
<linearGradient id="paint19_linear_28_3087" x1="2.08407" y1="79.0499" x2="294.428" y2="32.4175" gradientUnits="userSpaceOnUse">
<stop stop-color="#448DFF"/>
<stop offset="1" stop-color="#4429FF"/>
</linearGradient>
<linearGradient id="paint20_linear_28_3087" x1="2.47535" y1="81.5194" x2="294.819" y2="34.887" gradientUnits="userSpaceOnUse">
<stop stop-color="#448DFF"/>
<stop offset="1" stop-color="#4429FF"/>
</linearGradient>
<linearGradient id="paint21_linear_28_3087" x1="2.83659" y1="83.7505" x2="295.18" y2="37.1182" gradientUnits="userSpaceOnUse">
<stop stop-color="#448DFF"/>
<stop offset="1" stop-color="#4429FF"/>
</linearGradient>
<linearGradient id="paint22_linear_28_3087" x1="-7.81316" y1="15.547" x2="279.363" y2="-44.6199" gradientUnits="userSpaceOnUse">
<stop stop-color="#448DFF"/>
<stop offset="1" stop-color="#4429FF"/>
</linearGradient>
<linearGradient id="paint23_linear_28_3087" x1="-7.69415" y1="16.0911" x2="279.482" y2="-44.0759" gradientUnits="userSpaceOnUse">
<stop stop-color="#448DFF"/>
<stop offset="1" stop-color="#4429FF"/>
</linearGradient>
<linearGradient id="paint24_linear_28_3087" x1="-7.42913" y1="17.3563" x2="279.747" y2="-42.8107" gradientUnits="userSpaceOnUse">
<stop stop-color="#448DFF"/>
<stop offset="1" stop-color="#4429FF"/>
</linearGradient>
<linearGradient id="paint25_linear_28_3087" x1="-7.3161" y1="17.8942" x2="279.858" y2="-42.2721" gradientUnits="userSpaceOnUse">
<stop stop-color="#448DFF"/>
<stop offset="1" stop-color="#4429FF"/>
</linearGradient>
<linearGradient id="paint26_linear_28_3087" x1="-7.19588" y1="18.4811" x2="279.981" y2="-41.6862" gradientUnits="userSpaceOnUse">
<stop stop-color="#448DFF"/>
<stop offset="1" stop-color="#4429FF"/>
</linearGradient>
<linearGradient id="paint27_linear_28_3087" x1="-5.96652" y1="24.3613" x2="281.21" y2="-35.8057" gradientUnits="userSpaceOnUse">
<stop stop-color="#448DFF"/>
<stop offset="1" stop-color="#4429FF"/>
</linearGradient>
<linearGradient id="paint28_linear_28_3087" x1="-6.44002" y1="22.0935" x2="280.735" y2="-38.073" gradientUnits="userSpaceOnUse">
<stop stop-color="#448DFF"/>
<stop offset="1" stop-color="#4429FF"/>
</linearGradient>
<linearGradient id="paint29_linear_28_3087" x1="-5.43013" y1="26.898" x2="281.746" y2="-33.269" gradientUnits="userSpaceOnUse">
<stop stop-color="#448DFF"/>
<stop offset="1" stop-color="#4429FF"/>
</linearGradient>
<linearGradient id="paint30_linear_28_3087" x1="-4.89203" y1="29.4713" x2="282.284" y2="-30.6957" gradientUnits="userSpaceOnUse">
<stop stop-color="#448DFF"/>
<stop offset="1" stop-color="#4429FF"/>
</linearGradient>
<linearGradient id="paint31_linear_28_3087" x1="-5.6219" y1="25.9933" x2="281.554" y2="-34.1735" gradientUnits="userSpaceOnUse">
<stop stop-color="#448DFF"/>
<stop offset="1" stop-color="#4429FF"/>
</linearGradient>
<linearGradient id="paint32_linear_28_3087" x1="-5.50903" y1="26.5312" x2="281.667" y2="-33.6295" gradientUnits="userSpaceOnUse">
<stop stop-color="#448DFF"/>
<stop offset="1" stop-color="#4429FF"/>
</linearGradient>
<linearGradient id="paint33_linear_28_3087" x1="-3.85579" y1="34.4225" x2="283.32" y2="-25.7445" gradientUnits="userSpaceOnUse">
<stop stop-color="#448DFF"/>
<stop offset="1" stop-color="#4429FF"/>
</linearGradient>
<linearGradient id="paint34_linear_28_3087" x1="-63.0802" y1="52.5094" x2="339.292" y2="-31.791" gradientUnits="userSpaceOnUse">
<stop stop-color="#448DFF"/>
<stop offset="1" stop-color="#4429FF"/>
</linearGradient>
<linearGradient id="paint35_linear_28_3087" x1="23.9808" y1="43.2306" x2="311.157" y2="-16.9363" gradientUnits="userSpaceOnUse">
<stop stop-color="#448DFF"/>
<stop offset="1" stop-color="#4429FF"/>
</linearGradient>
<linearGradient id="paint36_linear_28_3087" x1="24.7831" y1="47.051" x2="311.953" y2="-13.1156" gradientUnits="userSpaceOnUse">
<stop stop-color="#448DFF"/>
<stop offset="1" stop-color="#4429FF"/>
</linearGradient>
<linearGradient id="paint37_linear_28_3087" x1="-29.643" y1="62.2039" x2="327.725" y2="-12.671" gradientUnits="userSpaceOnUse">
<stop stop-color="#448DFF"/>
<stop offset="1" stop-color="#4429FF"/>
</linearGradient>
</defs>
</svg>
